<?xml version="1.0" encoding="UTF-8"?><svg id="Layer_1" xmlns="http://www.w3.org/2000/svg" viewBox="0 0 500 500"><defs><style>.cls-1{fill:#d3d3d3;}.cls-2{fill:#a5a39b;}</style></defs><path class="cls-2" d="m345.68,274.89c37.33,0,67.6-30.27,67.6-67.6s-29.46-66.76-66.09-67.56c-15.06-32.94-48.3-55.83-86.89-55.83-48.76,0-88.99,36.55-94.78,83.75-19.89,4.94-35.45,20.83-39.94,40.9-1.78-.29-3.6-.45-5.46-.45-18.44,0-33.4,14.95-33.4,33.4s14.95,33.4,33.4,33.4h225.56Z"/><path class="cls-1" d="m137.06,361.47c-1.03,0-2.07-.16-3.1-.5-5.25-1.71-8.12-7.36-6.4-12.61l5.12-15.7c1.71-5.25,7.36-8.12,12.61-6.4,5.25,1.71,8.12,7.36,6.4,12.61l-5.12,15.7c-1.38,4.22-5.29,6.9-9.5,6.9Z"/><circle class="cls-1" cx="127.05" cy="382.11" r="11.24"/><path class="cls-1" d="m187.46,328.9c-1.03,0-2.07-.16-3.1-.5-5.25-1.71-8.12-7.36-6.4-12.61l5.12-15.7c1.71-5.25,7.36-8.12,12.61-6.4,5.25,1.71,8.12,7.36,6.4,12.61l-5.12,15.7c-1.38,4.22-5.29,6.9-9.5,6.9Z"/><circle class="cls-1" cx="177.46" cy="349.55" r="11.24"/><path class="cls-1" d="m239.59,352.16c-1.03,0-2.07-.16-3.1-.5-5.25-1.71-8.12-7.36-6.4-12.61l5.12-15.7c1.71-5.25,7.36-8.12,12.61-6.4,5.25,1.71,8.12,7.36,6.4,12.61l-5.12,15.7c-1.38,4.22-5.29,6.9-9.5,6.9Z"/><circle class="cls-1" cx="229.59" cy="372.81" r="11.24"/><path class="cls-1" d="m297,328.9c-1.03,0-2.07-.16-3.1-.5-5.25-1.71-8.12-7.36-6.4-12.61l5.12-15.7c1.71-5.25,7.36-8.12,12.61-6.4,5.25,1.71,8.12,7.36,6.4,12.61l-5.12,15.7c-1.38,4.22-5.29,6.9-9.5,6.9Z"/><circle class="cls-1" cx="286.99" cy="349.55" r="11.24"/><path class="cls-1" d="m339.23,360.01c-1.03,0-2.07-.16-3.1-.5-5.25-1.71-8.12-7.36-6.4-12.61l5.12-15.7c1.71-5.25,7.36-8.12,12.61-6.4,5.25,1.71,8.12,7.36,6.4,12.61l-5.12,15.7c-1.38,4.22-5.29,6.9-9.5,6.9Z"/><circle class="cls-1" cx="329.23" cy="380.66" r="11.24"/></svg>