<?xml version="1.0" encoding="UTF-8"?><svg id="Layer_1" xmlns="http://www.w3.org/2000/svg" viewBox="0 0 500 500"><defs><style>.cls-1{fill:#f7f700;}.cls-2{fill:#47afea;}.cls-3{fill:#a5a39b;}</style></defs><path class="cls-3" d="m345.68,280.53c37.33,0,67.6-30.27,67.6-67.6s-29.46-66.76-66.09-67.56c-15.06-32.94-48.3-55.83-86.89-55.83-48.76,0-88.99,36.55-94.78,83.75-19.89,4.94-35.45,20.83-39.94,40.9-1.78-.29-3.6-.45-5.46-.45-18.44,0-33.4,14.95-33.4,33.4s14.95,33.4,33.4,33.4h225.56Z"/><polygon class="cls-1" points="235.24 298.84 266.94 298.84 238.92 343.58 278.03 343.43 199.75 421.74 224.81 366.12 194.8 366.12 235.24 298.84"/><path class="cls-2" d="m129.32,367.11c-1.03,0-2.07-.16-3.1-.5-5.25-1.71-8.12-7.36-6.4-12.61l5.12-15.7c1.71-5.25,7.36-8.12,12.61-6.4,5.25,1.71,8.12,7.36,6.4,12.61l-5.12,15.7c-1.38,4.22-5.29,6.9-9.5,6.9Z"/><path class="cls-2" d="m179.72,334.55c-1.03,0-2.07-.16-3.1-.5-5.25-1.71-8.12-7.36-6.4-12.61l5.12-15.7c1.71-5.25,7.36-8.12,12.61-6.4,5.25,1.71,8.12,7.36,6.4,12.61l-5.12,15.7c-1.38,4.22-5.29,6.9-9.5,6.9Z"/><path class="cls-2" d="m308.11,367.11c-1.03,0-2.07-.16-3.1-.5-5.25-1.71-8.12-7.36-6.4-12.61l5.12-15.7c1.71-5.25,7.36-8.12,12.61-6.4,5.25,1.71,8.12,7.36,6.4,12.61l-5.12,15.7c-1.38,4.22-5.29,6.9-9.5,6.9Z"/><path class="cls-2" d="m358.51,334.55c-1.03,0-2.07-.16-3.1-.5-5.25-1.71-8.12-7.36-6.4-12.61l5.12-15.7c1.71-5.25,7.36-8.12,12.61-6.4,5.25,1.71,8.12,7.36,6.4,12.61l-5.12,15.7c-1.38,4.22-5.29,6.9-9.5,6.9Z"/></svg>