<?xml version="1.0" encoding="UTF-8"?><svg id="Layer_1" xmlns="http://www.w3.org/2000/svg" viewBox="0 0 500 500"><defs><style>.cls-1{fill:#47afea;}.cls-2{fill:#a5a39b;}</style></defs><path class="cls-2" d="m345.68,278c37.33,0,67.6-30.27,67.6-67.6s-29.46-66.76-66.09-67.56c-15.06-32.94-48.3-55.83-86.89-55.83-48.76,0-88.99,36.55-94.78,83.75-19.89,4.94-35.45,20.83-39.94,40.9-1.78-.29-3.6-.45-5.46-.45-18.44,0-33.4,14.95-33.4,33.4s14.95,33.4,33.4,33.4h225.56Z"/><path class="cls-1" d="m120.79,412.99c-1.03,0-2.07-.16-3.1-.5-5.25-1.71-8.12-7.36-6.4-12.61l30.85-94.52c1.71-5.25,7.36-8.12,12.61-6.4,5.25,1.71,8.12,7.36,6.4,12.61l-30.85,94.52c-1.38,4.22-5.29,6.9-9.5,6.9Z"/><path class="cls-1" d="m186.62,365.73c-1.03,0-2.07-.16-3.1-.5-5.25-1.71-8.12-7.36-6.4-12.61l15.42-47.26c1.71-5.25,7.36-8.12,12.61-6.4,5.25,1.71,8.12,7.36,6.4,12.61l-15.42,47.26c-1.38,4.22-5.29,6.9-9.5,6.9Z"/><path class="cls-1" d="m230.14,392.11c-1.03,0-2.07-.16-3.1-.5-5.25-1.71-8.12-7.36-6.4-12.61l24.03-73.64c1.71-5.25,7.36-8.12,12.61-6.4,5.25,1.71,8.12,7.36,6.4,12.61l-24.03,73.64c-1.38,4.22-5.29,6.9-9.5,6.9Z"/><path class="cls-1" d="m289.16,365.73c-1.03,0-2.07-.16-3.1-.5-5.25-1.71-8.12-7.36-6.4-12.61l15.42-47.26c1.71-5.25,7.36-8.12,12.61-6.4,5.25,1.71,8.12,7.36,6.4,12.61l-15.42,47.26c-1.38,4.22-5.29,6.9-9.5,6.9Z"/><path class="cls-1" d="m322.97,412.99c-1.03,0-2.07-.16-3.1-.5-5.25-1.71-8.12-7.36-6.4-12.61l30.85-94.52c1.71-5.25,7.36-8.12,12.61-6.4,5.25,1.71,8.12,7.36,6.4,12.61l-30.85,94.52c-1.38,4.22-5.29,6.9-9.5,6.9Z"/></svg>