<?xml version="1.0" encoding="UTF-8"?><svg id="Layer_1" xmlns="http://www.w3.org/2000/svg" viewBox="0 0 500 500"><defs><style>.cls-1{fill:#ffd400;}.cls-2{fill:#a5a39b;}</style></defs><path class="cls-1" d="m187.12,285.87c7.26-46.77,45.16-82.57,91.57-87.9-15.26-12.46-34.74-19.94-55.98-19.94-48.91,0-88.55,39.65-88.55,88.55,0,18.86,5.9,36.34,15.95,50.7,7.51-14.87,20.89-26.42,37.02-31.41Z"/><path class="cls-1" d="m123.55,311.75c-1.99-4.36-7.13-6.29-11.5-4.3l-39.72,18.09c-4.36,1.99-6.29,7.13-4.3,11.5,1.46,3.2,4.61,5.08,7.9,5.08,1.2,0,2.43-.25,3.59-.78l39.72-18.09c4.36-1.99,6.29-7.13,4.3-11.5Z"/><path class="cls-1" d="m106.29,258.4c4.24,0,7.95-3.11,8.58-7.44.69-4.74-2.6-9.15-7.35-9.83l-43.2-6.25c-4.75-.69-9.15,2.6-9.83,7.35-.69,4.74,2.6,9.15,7.35,9.83l43.2,6.25c.42.06.84.09,1.25.09Z"/><path class="cls-1" d="m95.23,167.39l32.96,28.62c1.64,1.43,3.67,2.13,5.69,2.13,2.43,0,4.84-1.01,6.56-2.99,3.14-3.62,2.76-9.1-.86-12.24l-32.96-28.62c-3.62-3.14-9.1-2.76-12.24.86-3.14,3.62-2.76,9.1.86,12.24Z"/><path class="cls-1" d="m181.34,156.11c1.11,3.79,4.57,6.24,8.33,6.24.81,0,1.63-.11,2.44-.35,4.6-1.35,7.24-6.17,5.89-10.77l-12.26-41.89c-1.35-4.6-6.17-7.24-10.77-5.89-4.6,1.35-7.24,6.17-5.89,10.77l12.26,41.89Z"/><path class="cls-1" d="m253.51,162.06c.82.24,1.65.36,2.46.36,3.75,0,7.21-2.45,8.32-6.23l12.34-41.87c1.36-4.6-1.27-9.42-5.87-10.78-4.6-1.35-9.42,1.28-10.78,5.87l-12.34,41.87c-1.35,4.6,1.27,9.42,5.87,10.78Z"/><path class="cls-1" d="m311.69,198.31c2.01,0,4.03-.7,5.67-2.11l33.02-28.55c3.63-3.13,4.02-8.62.89-12.24-3.14-3.63-8.62-4.02-12.24-.89l-33.02,28.55c-3.63,3.13-4.02,8.62-.89,12.24,1.72,1.98,4.13,3,6.57,3Z"/><path class="cls-2" d="m381.24,273.11l-7.83-.17-3.26-7.13c-14.18-31.02-45.37-51.06-79.46-51.06-.41,0-.82.01-1.23.03l-.79.02c-43.03.99-79.41,33.88-84.64,76.51l-1.05,8.53-8.34,2.08c-13.85,3.44-25.27,13.49-30.56,26.88-.84,2.13-1.51,4.31-2,6.47l-2.58,11.53-11.65-1.92c-1.24-.2-2.48-.31-3.68-.31-12.36,0-22.41,10.05-22.41,22.41s10.05,22.41,22.41,22.41h235.77c32.07,0,58.16-26.09,58.16-58.16s-25.51-57.44-56.86-58.12Z"/><path class="cls-2" d="m379.94,389.4h-235.77c-12.36,0-22.41-10.05-22.41-22.41s10.05-22.41,22.41-22.41c1.21,0,2.44.1,3.68.31l11.65,1.92,2.58-11.53c.48-2.16,1.15-4.34,2-6.47,5.29-13.39,16.71-23.43,30.56-26.88l8.34-2.08,1.05-8.53c5.23-42.63,41.62-75.53,84.64-76.51l.79-.02c.41-.01.82-.03,1.23-.03,34.09,0,65.28,20.04,79.46,51.06l3.26,7.13,7.83.17c31.35.69,56.86,26.76,56.86,58.12s-26.09,58.16-58.16,58.16Z"/></svg>