<?xml version="1.0" encoding="UTF-8"?><svg id="Layer_1" xmlns="http://www.w3.org/2000/svg" viewBox="0 0 500 500"><defs><style>.cls-1{fill:#d3d3d3;}.cls-2{fill:#a5a39b;}</style></defs><path class="cls-2" d="m345.68,280.53c37.33,0,67.6-30.27,67.6-67.6s-29.46-66.76-66.09-67.56c-15.06-32.94-48.3-55.83-86.89-55.83-48.76,0-88.99,36.55-94.78,83.75-19.89,4.94-35.45,20.83-39.94,40.9-1.78-.29-3.6-.45-5.46-.45-18.44,0-33.4,14.95-33.4,33.4s14.95,33.4,33.4,33.4h225.56Z"/><path class="cls-1" d="m334.61,320.72h-167.54c-4.06,0-7.35-3.58-7.35-8s3.29-8,7.35-8h167.54c4.06,0,7.35,3.58,7.35,8s-3.29,8-7.35,8Z"/><path class="cls-1" d="m316.15,360.59h-130.62c-3.16,0-5.73-3.58-5.73-8s2.56-8,5.73-8h130.62c3.16,0,5.73,3.58,5.73,8s-2.56,8-5.73,8Z"/></svg>