<?xml version="1.0" encoding="UTF-8"?><svg id="Layer_1" xmlns="http://www.w3.org/2000/svg" viewBox="0 0 500 500"><defs><style>.cls-1{fill:#3d009e;}.cls-2{fill:#a5a39b;}</style></defs><path class="cls-1" d="m436.05,236.66c-14.97,11.41-33.69,18.16-54,18.05-48.18-.26-87.6-39.68-87.86-87.86-.11-20.3,6.63-39.03,18.05-54,2.18-2.86-.73-6.83-4.09-5.55-40.48,15.32-68.83,55.28-66.76,101.57,28.96,6.56,54.1,25.57,68.09,52.34,17.58,1.65,33.87,9.38,46.35,22.12,6.11,6.24,11,13.37,14.56,21.09,32.82-8.36,59.39-32.39,71.22-63.67,1.27-3.37-2.69-6.28-5.55-4.09Z"/><path class="cls-1" d="m329.76,194.55c.19.18.27.45.23.7l-1.05,6.1c-.11.65.57,1.14,1.15.84l5.48-2.88c.23-.12.51-.12.74,0l5.48,2.88c.58.31,1.26-.19,1.15-.84l-1.05-6.1c-.04-.26.04-.52.23-.7l4.43-4.32c.47-.46.21-1.26-.44-1.35l-6.13-.89c-.26-.04-.48-.2-.6-.43l-2.74-5.55c-.29-.59-1.13-.59-1.42,0l-2.74,5.55c-.12.23-.34.4-.6.43l-6.12.89c-.65.09-.91.89-.44,1.35l4.43,4.32Z"/><path class="cls-1" d="m370.26,179.27c.78.76,1.14,1.86.95,2.94l-2.15,12.55c-.46,2.71,2.38,4.78,4.81,3.5l11.27-5.93c.97-.51,2.12-.51,3.09,0l11.27,5.93c2.43,1.28,5.28-.79,4.81-3.5l-2.15-12.55c-.18-1.08.17-2.17.95-2.94l9.12-8.89c1.97-1.92.88-5.26-1.84-5.66l-12.6-1.83c-1.08-.16-2.01-.84-2.5-1.81l-5.64-11.42c-1.22-2.46-4.73-2.46-5.95,0l-5.64,11.42c-.48.98-1.42,1.66-2.5,1.81l-12.6,1.83c-2.72.4-3.81,3.74-1.84,5.66l9.12,8.89Z"/><path class="cls-2" d="m352.05,307.36c-9.72-16.86-27.76-28.48-48.39-28.93l-5.49-.12-2.29-5c-10.15-22.21-29.31-38.59-51.95-45.62-7.97-2.48-16.37-3.8-24.97-3.8-42.64,0-78.71,31.87-83.9,74.12l-.73,5.98-5.85,1.45c-16.16,4.02-28.95,17.11-32.58,33.37l-1.81,8.08-8.17-1.35c-1.31-.22-2.62-.33-3.91-.33-13.16,0-23.86,10.71-23.86,23.86s10.71,23.86,23.86,23.86h220.37c31.58,0,57.28-25.69,57.28-57.28,0-10.25-2.78-19.93-7.61-28.31Z"/></svg>