<?xml version="1.0" encoding="UTF-8"?><svg id="Layer_1" xmlns="http://www.w3.org/2000/svg" viewBox="0 0 500 500"><defs><style>.cls-1{fill:#3d009e;}</style></defs><path class="cls-1" d="m301.31,310.01c-61.05-.33-110.99-50.27-111.32-111.32-.14-25.73,8.4-49.45,22.87-68.42,2.76-3.63-.92-8.65-5.19-7.04-54.51,20.63-91.68,76.53-83.64,139.85,7.46,58.76,54.13,105.43,112.89,112.89,63.32,8.04,119.22-29.14,139.85-83.64,1.61-4.26-3.41-7.95-7.04-5.19-18.97,14.46-42.69,23-68.42,22.87Z"/><path class="cls-1" d="m243.78,217.9l3.47,7.03c.15.3.43.5.76.55l7.76,1.13c.83.12,1.15,1.13.56,1.72l-5.62,5.47c-.24.23-.35.56-.29.89l1.33,7.73c.14.82-.72,1.45-1.46,1.06l-6.94-3.65c-.29-.15-.64-.15-.94,0l-6.94,3.65c-.74.39-1.6-.24-1.46-1.06l1.33-7.73c.06-.33-.05-.66-.29-.89l-5.62-5.47c-.6-.58-.27-1.6.56-1.72l7.76-1.13c.33-.05.61-.25.76-.55l3.47-7.03c.37-.75,1.44-.75,1.8,0Z"/><path class="cls-1" d="m310.95,176.92l7.14,14.47c.61,1.24,1.8,2.1,3.16,2.3l15.97,2.32c3.45.5,4.82,4.74,2.33,7.17l-11.55,11.26c-.99.97-1.44,2.36-1.21,3.72l2.73,15.9c.59,3.43-3.01,6.05-6.1,4.43l-14.28-7.51c-1.22-.64-2.69-.64-3.91,0l-14.28,7.51c-3.08,1.62-6.69-1-6.1-4.43l2.73-15.9c.23-1.36-.22-2.75-1.21-3.72l-11.55-11.26c-2.49-2.43-1.12-6.67,2.33-7.17l15.97-2.32c1.37-.2,2.55-1.06,3.16-2.3l7.14-14.47c1.54-3.12,5.99-3.12,7.54,0Z"/></svg>