<?xml version="1.0" encoding="UTF-8"?><svg id="Layer_1" xmlns="http://www.w3.org/2000/svg" viewBox="0 0 500 500"><defs><style>.cls-1{fill:#d3d3d3;}.cls-2{fill:#47afea;}.cls-3{fill:#a5a39b;}</style></defs><path class="cls-3" d="m345.68,274.89c37.33,0,67.6-30.27,67.6-67.6s-29.46-66.76-66.09-67.56c-15.06-32.94-48.3-55.83-86.89-55.83-48.76,0-88.99,36.55-94.78,83.75-19.89,4.94-35.45,20.83-39.94,40.9-1.78-.29-3.6-.45-5.46-.45-18.44,0-33.4,14.95-33.4,33.4s14.95,33.4,33.4,33.4h225.56Z"/><path class="cls-2" d="m132.84,361.47c-1.03,0-2.07-.16-3.1-.5-5.25-1.71-8.12-7.36-6.4-12.61l5.12-15.7c1.71-5.25,7.36-8.12,12.61-6.4,5.25,1.71,8.12,7.36,6.4,12.61l-5.12,15.7c-1.38,4.22-5.29,6.9-9.5,6.9Z"/><path class="cls-2" d="m183.25,328.9c-1.03,0-2.07-.16-3.1-.5-5.25-1.71-8.12-7.36-6.4-12.61l5.12-15.7c1.71-5.25,7.36-8.12,12.61-6.4,5.25,1.71,8.12,7.36,6.4,12.61l-5.12,15.7c-1.38,4.22-5.29,6.9-9.5,6.9Z"/><path class="cls-2" d="m311.63,361.47c-1.03,0-2.07-.16-3.1-.5-5.25-1.71-8.12-7.36-6.4-12.61l5.12-15.7c1.71-5.25,7.36-8.12,12.61-6.4,5.25,1.71,8.12,7.36,6.4,12.61l-5.12,15.7c-1.38,4.22-5.29,6.9-9.5,6.9Z"/><path class="cls-2" d="m362.04,328.9c-1.03,0-2.07-.16-3.1-.5-5.25-1.71-8.12-7.36-6.4-12.61l5.12-15.7c1.71-5.25,7.36-8.12,12.61-6.4,5.25,1.71,8.12,7.36,6.4,12.61l-5.12,15.7c-1.38,4.22-5.29,6.9-9.5,6.9Z"/><path class="cls-1" d="m260.23,328.96h-10.64l7.53-7.53c1.82-1.82,1.82-4.76,0-6.58-1.82-1.82-4.76-1.82-6.58,0l-7.52,7.52v-10.64c0-2.57-2.08-4.65-4.65-4.65s-4.65,2.08-4.65,4.65v10.64l-7.52-7.52c-1.82-1.82-4.76-1.82-6.58,0-1.82,1.82-1.82,4.76,0,6.58l7.53,7.53h-10.64c-2.57,0-4.65,2.08-4.65,4.65s2.08,4.65,4.65,4.65h10.64l-7.52,7.52c-1.82,1.82-1.82,4.76,0,6.58.91.91,2.1,1.36,3.29,1.36s2.38-.45,3.29-1.36l7.52-7.52v10.64c0,2.57,2.08,4.65,4.65,4.65s4.65-2.08,4.65-4.65v-10.64l7.52,7.52c.91.91,2.1,1.36,3.29,1.36s2.38-.45,3.29-1.36c1.82-1.82,1.82-4.76,0-6.58l-7.52-7.52h10.64c2.57,0,4.65-2.08,4.65-4.65s-2.08-4.65-4.65-4.65Z"/><path class="cls-1" d="m285.6,302.56h-4.56l3.22-3.22c.78-.78.78-2.04,0-2.82-.78-.78-2.04-.78-2.82,0l-3.22,3.22v-4.56c0-1.1-.89-1.99-1.99-1.99s-1.99.89-1.99,1.99v4.56l-3.22-3.22c-.78-.78-2.04-.78-2.82,0-.78.78-.78,2.04,0,2.82l3.22,3.22h-4.56c-1.1,0-1.99.89-1.99,1.99s.89,1.99,1.99,1.99h4.56l-3.22,3.22c-.78.78-.78,2.04,0,2.82.39.39.9.58,1.41.58s1.02-.19,1.41-.58l3.22-3.22v4.56c0,1.1.89,1.99,1.99,1.99s1.99-.89,1.99-1.99v-4.56l3.22,3.22c.39.39.9.58,1.41.58s1.02-.19,1.41-.58c.78-.78.78-2.04,0-2.82l-3.22-3.22h4.56c1.1,0,1.99-.89,1.99-1.99s-.89-1.99-1.99-1.99Z"/></svg>