<?xml version="1.0" encoding="UTF-8"?><svg id="Layer_1" xmlns="http://www.w3.org/2000/svg" viewBox="0 0 500 500"><defs><style>.cls-1{fill:#f7f700;}.cls-2{fill:#d3d3d3;}.cls-3{fill:#a5a39b;}</style></defs><path class="cls-3" d="m345.68,274.89c37.33,0,67.6-30.27,67.6-67.6s-29.46-66.76-66.09-67.56c-15.06-32.94-48.3-55.83-86.89-55.83-48.76,0-88.99,36.55-94.78,83.75-19.89,4.94-35.45,20.83-39.94,40.9-1.78-.29-3.6-.45-5.46-.45-18.44,0-33.4,14.95-33.4,33.4s14.95,33.4,33.4,33.4h225.56Z"/><polygon class="cls-1" points="237.11 293.2 268.81 293.2 240.79 337.94 279.9 337.79 201.62 416.1 226.68 360.48 196.67 360.48 237.11 293.2"/><path class="cls-2" d="m359.33,339.81h-12.82l9.06-9.06c2.19-2.19,2.19-5.74,0-7.92-2.19-2.19-5.74-2.19-7.92,0l-9.06,9.06v-12.82c0-3.09-2.51-5.6-5.6-5.6s-5.6,2.51-5.6,5.6v12.82l-9.06-9.06c-2.19-2.19-5.73-2.19-7.92,0-2.19,2.19-2.19,5.74,0,7.92l9.06,9.06h-12.82c-3.09,0-5.6,2.51-5.6,5.6s2.51,5.6,5.6,5.6h12.82l-9.06,9.06c-2.19,2.19-2.19,5.74,0,7.92,1.09,1.09,2.53,1.64,3.96,1.64s2.87-.55,3.96-1.64l9.06-9.06v12.82c0,3.09,2.51,5.6,5.6,5.6s5.6-2.51,5.6-5.6v-12.82l9.06,9.06c1.09,1.09,2.53,1.64,3.96,1.64s2.87-.55,3.96-1.64c2.19-2.19,2.19-5.74,0-7.92l-9.06-9.06h12.82c3.09,0,5.6-2.51,5.6-5.6s-2.51-5.6-5.6-5.6Z"/><path class="cls-2" d="m183.68,317.9h-10.3l7.29-7.29c1.76-1.76,1.76-4.61,0-6.37-1.76-1.76-4.61-1.76-6.37,0l-7.29,7.29v-10.3c0-2.49-2.02-4.5-4.5-4.5s-4.5,2.02-4.5,4.5v10.3l-7.29-7.29c-1.76-1.76-4.61-1.76-6.37,0-1.76,1.76-1.76,4.61,0,6.37l7.29,7.29h-10.3c-2.49,0-4.5,2.02-4.5,4.5s2.02,4.5,4.5,4.5h10.3l-7.29,7.29c-1.76,1.76-1.76,4.61,0,6.37.88.88,2.03,1.32,3.19,1.32s2.31-.44,3.19-1.32l7.29-7.29v10.3c0,2.49,2.02,4.5,4.5,4.5s4.5-2.02,4.5-4.5v-10.3l7.29,7.29c.88.88,2.03,1.32,3.19,1.32s2.31-.44,3.19-1.32c1.76-1.76,1.76-4.61,0-6.37l-7.29-7.29h10.3c2.49,0,4.5-2.02,4.5-4.5s-2.02-4.5-4.5-4.5Z"/><path class="cls-2" d="m180.86,375.61h-4l2.83-2.83c.68-.68.68-1.79,0-2.47-.68-.68-1.79-.68-2.47,0l-2.82,2.82v-3.99c0-.96-.78-1.75-1.75-1.75s-1.75.78-1.75,1.75v3.99l-2.82-2.82c-.68-.68-1.79-.68-2.47,0-.68.68-.68,1.79,0,2.47l2.83,2.83h-4c-.96,0-1.75.78-1.75,1.75s.78,1.75,1.75,1.75h3.99l-2.82,2.82c-.68.68-.68,1.79,0,2.47.34.34.79.51,1.23.51s.89-.17,1.23-.51l2.82-2.82v3.99c0,.96.78,1.75,1.75,1.75s1.75-.78,1.75-1.75v-3.99l2.82,2.82c.34.34.79.51,1.23.51s.89-.17,1.23-.51c.68-.68.68-1.79,0-2.47l-2.82-2.82h3.99c.96,0,1.75-.78,1.75-1.75s-.78-1.75-1.75-1.75Z"/></svg>