<?xml version="1.0" encoding="UTF-8"?><svg id="Layer_1" xmlns="http://www.w3.org/2000/svg" viewBox="0 0 500 500"><defs><style>.cls-1{fill:#ffd400;}</style></defs><circle class="cls-1" cx="250" cy="250" r="96.93"/><path class="cls-1" d="m249.88,369.27h0c-5.24,0-9.49,4.25-9.5,9.49l-.05,47.78c0,5.25,4.24,9.5,9.49,9.51h0c5.24,0,9.49-4.25,9.5-9.49l.05-47.78c0-5.25-4.24-9.5-9.49-9.51Z"/><path class="cls-1" d="m185.42,350.28c-4.41-2.84-10.29-1.57-13.13,2.84l-25.87,40.17c-2.84,4.41-1.57,10.29,2.84,13.13,1.59,1.02,3.37,1.51,5.14,1.51,3.12,0,6.18-1.54,8-4.36l25.87-40.17c2.84-4.41,1.57-10.29-2.84-13.13Z"/><path class="cls-1" d="m128.87,294.73l-43.48,19.81c-4.77,2.17-6.88,7.81-4.71,12.58,1.59,3.5,5.04,5.56,8.65,5.56,1.32,0,2.66-.28,3.93-.86l43.48-19.81c4.77-2.17,6.88-7.81,4.71-12.58s-7.81-6.88-12.58-4.71Z"/><path class="cls-1" d="m122.57,241.05c4.64,0,8.71-3.41,9.39-8.14.75-5.19-2.85-10.01-8.04-10.76l-47.29-6.85c-5.2-.75-10.01,2.85-10.76,8.04-.75,5.19,2.85,10.01,8.04,10.76l47.29,6.85c.46.07.92.1,1.37.1Z"/><path class="cls-1" d="m110.46,141.42l36.08,31.32c1.8,1.56,4.02,2.33,6.22,2.33,2.66,0,5.3-1.11,7.18-3.27,3.44-3.96,3.02-9.96-.95-13.4l-36.08-31.32c-3.96-3.44-9.96-3.02-13.4.95-3.44,3.96-3.02,9.96.95,13.4Z"/><path class="cls-1" d="m204.72,129.07c1.21,4.15,5,6.83,9.11,6.83.88,0,1.78-.12,2.67-.38,5.04-1.47,7.92-6.75,6.45-11.79l-13.42-45.86c-1.47-5.04-6.75-7.93-11.79-6.45-5.04,1.47-7.92,6.75-6.45,11.79l13.42,45.86Z"/><path class="cls-1" d="m283.72,135.59c.9.26,1.8.39,2.69.39,4.1,0,7.89-2.68,9.11-6.82l13.51-45.83c1.48-5.03-1.39-10.31-6.43-11.8-5.04-1.48-10.32,1.4-11.8,6.43l-13.51,45.83c-1.48,5.03,1.39,10.31,6.43,11.8Z"/><path class="cls-1" d="m347.41,175.27c2.2,0,4.41-.76,6.21-2.31l36.14-31.25c3.97-3.43,4.4-9.43.97-13.4-3.43-3.97-9.43-4.4-13.4-.97l-36.14,31.25c-3.97,3.43-4.4,9.43-.97,13.4,1.88,2.17,4.53,3.29,7.19,3.29Z"/><path class="cls-1" d="m434.19,223.7c-.74-5.19-5.55-8.8-10.75-8.06l-47.3,6.75c-5.19.74-8.8,5.55-8.06,10.75.68,4.74,4.74,8.16,9.39,8.16.45,0,.9-.03,1.35-.1l47.3-6.75c5.19-.74,8.8-5.55,8.06-10.75Z"/><path class="cls-1" d="m414.48,314.86l-43.44-19.89c-4.77-2.18-10.41-.09-12.59,4.68s-.09,10.41,4.68,12.59l43.44,19.89c1.28.59,2.63.86,3.95.86,3.6,0,7.05-2.06,8.64-5.55,2.18-4.77.09-10.41-4.68-12.59Z"/><path class="cls-1" d="m327.51,353.27c-2.83-4.42-8.71-5.7-13.12-2.87-4.42,2.83-5.7,8.71-2.87,13.12l25.79,40.22c1.81,2.83,4.88,4.37,8.01,4.37,1.76,0,3.53-.49,5.12-1.5,4.42-2.83,5.7-8.71,2.87-13.12l-25.79-40.22Z"/></svg>