<?xml version="1.0" encoding="UTF-8"?><svg id="Layer_1" xmlns="http://www.w3.org/2000/svg" viewBox="0 0 500 500"><defs><style>.cls-1{fill:#fff;}.cls-2{fill:#a5a39b;}</style></defs><path class="cls-2" d="m169.75,211.13c3.32-18.99,11.82-36.5,24.71-50.91-7.29-3.1-15.21-4.73-23.11-4.73-10.34,0-20.54,2.77-29.5,8.01-18.46,10.81-29.57,30.83-28.98,52.25l.15,5.37-4.91,2.17c-1.51.67-2.94,1.39-4.25,2.16-9.56,5.59-16.37,14.58-19.17,25.29s-1.27,21.88,4.33,31.44c.5.86,1.04,1.7,1.6,2.52,1.38-8.83,5.58-16.92,12.17-23.28,7.7-7.44,17.69-11.52,28.29-11.62,6.27-18.12,20.55-32.4,38.67-38.66Z"/><path class="cls-1" d="m92.62,291.18c-2.17-2.34-4.1-4.92-5.75-7.74-5.93-10.13-7.56-21.97-4.59-33.33s10.19-20.88,20.32-26.82c1.4-.82,2.91-1.59,4.51-2.29l3.38-1.49-.1-3.69c-.62-22.33,10.96-43.2,30.21-54.47,9.68-5.66,20.28-8.35,30.76-8.35,9.46,0,18.82,2.2,27.28,6.39-13.76,14.39-23.36,32.88-26.67,53.64-18.54,5.9-33.29,20.76-39.09,39.29-22.03-.77-40.26,16.97-40.26,38.87Z"/><path class="cls-2" d="m102.79,261.42c-6.58,6.36-10.78,14.46-12.17,23.28-.56-.82-1.1-1.66-1.6-2.52-5.59-9.56-7.13-20.72-4.33-31.44s9.61-19.7,19.17-25.29c1.31-.77,2.75-1.5,4.25-2.16l4.91-2.17-.15-5.37c-.59-21.42,10.51-41.44,28.98-52.25,8.96-5.24,19.16-8.01,29.5-8.01,7.89,0,15.82,1.63,23.11,4.73-12.89,14.41-21.4,31.92-24.71,50.91-18.12,6.26-32.4,20.54-38.67,38.66-10.6.1-20.59,4.19-28.29,11.62Z"/><path class="cls-2" d="m256.35,259.48c.43,0,.87,0,1.32.02,13.63-21.18,37.55-34.28,62.77-34.28,41.13,0,74.6,33.46,74.6,74.6,0,1.03-.02,2.08-.07,3.12,13.82-11.4,21.71-28.05,21.71-45.95,0-32.14-26.14-58.86-58.27-59.56l-5.01-.11-2.08-4.56c-14.21-31.08-45.46-51.16-79.61-51.16-19.52,0-38.02,6.33-53.51,18.31-1.59,1.23-2.98,2.36-4.22,3.46-1.27,1.11-2.56,2.33-3.96,3.71-13.85,13.76-22.78,31.95-25.15,51.24l-.67,5.46-5.34,1.33c-16.89,4.2-30.26,17.89-34.06,34.88l-1.65,7.38-7.46-1.23c-1.4-.23-2.8-.35-4.16-.35-14,0-25.4,11.39-25.4,25.4,0,2.94.5,5.83,1.5,8.59.9,2.49,2.18,4.82,3.83,6.94,2.2,2.84,5.04,5.23,8.2,6.91,3.64,1.93,7.74,2.96,11.87,2.96h67.37c.2-31.52,25.9-57.1,57.46-57.1Z"/><path class="cls-1" d="m131.52,319.08c-4.71,0-9.15-1.18-13.04-3.25-3.51-1.87-6.58-4.46-9-7.59-1.77-2.29-3.2-4.85-4.2-7.62-1.06-2.95-1.65-6.13-1.65-9.44,0-15.38,12.51-27.9,27.9-27.9,1.5,0,3.04.13,4.57.38l5.13.84,1.13-5.07c4-17.91,18.09-32.34,35.89-36.76l3.67-.91.46-3.76c2.53-20.64,12-38.94,25.87-52.71,1.32-1.31,2.67-2.59,4.07-3.82,1.41-1.24,2.86-2.41,4.34-3.56,15.3-11.83,34.44-18.83,55.04-18.83,35.13,0,67.27,20.65,81.89,52.62l1.43,3.14,3.45.08c33.48.73,60.71,28.58,60.71,62.06,0,19.87-9.39,37.57-23.95,48.95-.95-.24-1.92-.44-2.91-.6.14-1.85.21-3.69.21-5.52,0-39.75-32.34-72.1-72.1-72.1-25.12,0-48.33,13.07-61.42,34.34-.9-.05-1.79-.07-2.66-.07-30.31,0-54.96,24.66-54.96,54.96,0,.72.03,1.43.05,2.14h-69.92Z"/><path class="cls-2" d="m131.52,316.58c-4.13,0-8.23-1.02-11.87-2.96-3.16-1.68-6-4.07-8.2-6.91-1.64-2.12-2.93-4.45-3.83-6.94-.99-2.76-1.5-5.65-1.5-8.59,0-14,11.39-25.4,25.4-25.4,1.37,0,2.77.12,4.16.35l7.46,1.23,1.65-7.38c3.79-16.99,17.16-30.68,34.06-34.88l5.34-1.33.67-5.46c2.37-19.29,11.3-37.49,25.15-51.24,1.39-1.38,2.69-2.6,3.96-3.71,1.25-1.1,2.63-2.23,4.22-3.46,15.49-11.98,33.99-18.31,53.51-18.31,34.15,0,65.4,20.08,79.61,51.16l2.08,4.56,5.01.11c32.13.7,58.27,27.42,58.27,59.56,0,17.9-7.89,34.55-21.71,45.95.04-1.04.07-2.09.07-3.12,0-41.13-33.46-74.6-74.6-74.6-25.22,0-49.14,13.1-62.77,34.28-.45-.01-.89-.02-1.32-.02-31.56,0-57.26,25.58-57.46,57.1h-67.37Z"/><path class="cls-2" d="m395.83,320.46h0c-1.97-.97-4.08-1.6-6.28-1.88-1.01-.13-1.95-.19-2.88-.16l-9.92.31,1.53-9.56c.5-3.12.75-6.26.75-9.36,0-32.31-26.29-58.6-58.6-58.6-21.4,0-41.09,11.67-51.4,30.45l-2.58,4.71-5.34-.61c-1.64-.19-3.24-.28-4.76-.28-22.86,0-41.46,18.6-41.46,41.46,0,.68.02,1.35.05,2.02.08,1.68.28,3.43.59,5.19.32,1.8.74,3.55,1.25,5.18,5.46,17.39,21.36,29.08,39.57,29.08h130.68c11.03,0,20-8.97,20-20,0-7.67-4.29-14.55-11.2-17.95Z"/><path class="cls-1" d="m387.03,360.91h-130.68c-19.67,0-36.36-12.98-41.96-30.83-.56-1.79-1-3.62-1.33-5.5-.32-1.8-.53-3.63-.62-5.5-.03-.71-.05-1.42-.05-2.14,0-24.24,19.72-43.96,43.96-43.96,1.62,0,3.32.1,5.05.3l3.67.42,1.78-3.24c10.75-19.58,31.28-31.75,53.59-31.75,33.69,0,61.1,27.41,61.1,61.1,0,3.23-.26,6.51-.78,9.75l-.82,5.14-.23,1.43,6.87-.21c.15,0,.31-.01.46-.01.96,0,1.9.07,2.83.18,2.51.32,4.89,1.04,7.07,2.12,7.46,3.67,12.6,11.34,12.6,20.2,0,12.4-10.09,22.5-22.5,22.5Z"/><path class="cls-2" d="m387.03,358.41h-130.68c-18.21,0-34.11-11.68-39.57-29.08-.51-1.63-.93-3.38-1.25-5.18-.31-1.76-.51-3.5-.59-5.19-.03-.67-.05-1.34-.05-2.02,0-22.86,18.6-41.46,41.46-41.46,1.52,0,3.12.09,4.76.28l5.34.61,2.58-4.71c10.31-18.78,30.01-30.45,51.4-30.45,32.31,0,58.6,26.29,58.6,58.6,0,3.09-.25,6.24-.75,9.36l-1.53,9.56,9.92-.31c.93-.04,1.87.03,2.88.16,2.2.28,4.31.91,6.28,1.88h0c6.91,3.4,11.2,10.28,11.2,17.95,0,11.03-8.97,20-20,20Z"/></svg>