<?xml version="1.0" encoding="UTF-8"?><svg id="Layer_1" xmlns="http://www.w3.org/2000/svg" viewBox="0 0 500 500"><defs><style>.cls-1{fill:#d3d3d3;}</style></defs><path class="cls-1" d="m260.09,240.61c-15.97,0-28.2-6.79-40.09-13.4-10.34-5.75-21.04-11.69-35.21-13.75-19.25-2.8-40.38,2.41-62.81,15.47-4.77,2.78-10.89,1.16-13.67-3.61-2.78-4.77-1.16-10.89,3.61-13.67,26.43-15.39,51.91-21.44,75.75-17.98,17.8,2.59,30.68,9.74,42.05,16.05,12.82,7.12,22.94,12.75,37.22,10.27,4.72-.82,20.66-4.5,27.5-17.5,5.82-11.07,5.72-28.09-5.93-37.84-10.2-8.53-25.32-8.82-36.78-.7-4.51,3.19-10.75,2.13-13.94-2.38-3.19-4.51-2.12-10.75,2.38-13.94,18.86-13.36,44.02-12.66,61.17,1.69,19.7,16.48,20.26,44.5,10.79,62.49-10.79,20.5-32.81,26.34-41.78,27.89-3.6.62-7.01.91-10.27.91Z"/><path class="cls-1" d="m355.6,333.53c-1.21,0-2.69-.1-4.71-.25-.76-.06-1.45-.11-1.88-.13-27.51-1.05-45.68-15.38-63.24-29.24-14.34-11.31-29.16-23-50.52-29.58-9.8-3.02-61.39-17-114.54,4.54-5.12,2.08-10.95-.39-13.02-5.51-2.07-5.12.39-10.95,5.51-13.02,46.04-18.66,96.28-14.88,127.94-5.12,24.93,7.68,41.98,21.13,57.02,32.99,17.11,13.49,30.62,24.15,51.62,24.95.59.02,1.54.09,2.6.17.94.07,2.67.19,3.23.2,6.55-.16,29-1.98,41.27-18.91,10.51-14.5,14.03-38.79-.16-55.23-12.28-14.23-33.12-17.87-50.67-8.85-4.91,2.52-10.94.59-13.46-4.32s-.59-10.94,4.32-13.46c25.8-13.26,56.62-7.67,74.96,13.57,20.91,24.23,16.23,59.32,1.21,80.03-17.18,23.7-45.6,26.89-57.02,27.16-.14,0-.29,0-.44,0Z"/><path class="cls-1" d="m216.19,368.83c-8.19,0-16.47-2.51-23.61-7.57-4.51-3.19-5.57-9.43-2.38-13.94,3.19-4.51,9.43-5.57,13.94-2.38,7.42,5.25,17.55,5.09,24.11-.39,8.07-6.75,7.06-18.6,3.76-24.86-4.52-8.59-15.33-11.07-18.54-11.62-8.41-1.45-11.05.76-17.44,6.11-5.93,4.97-14.05,11.77-28.51,15.18l-1.06.25c-12.4,2.94-29.38,6.96-54.54-7.7-4.77-2.78-6.39-8.9-3.61-13.67,2.78-4.77,8.9-6.39,13.67-3.61,18.27,10.64,29.25,8.04,39.87,5.52l1.09-.26c9.83-2.31,14.89-6.55,20.24-11.04,7.57-6.34,16.16-13.53,33.7-10.49,7.03,1.22,24.29,5.8,32.82,22.02,7.49,14.24,7.01,36.43-8.63,49.51-7.11,5.95-15.94,8.94-24.89,8.94Z"/></svg>